<?xml version="1.0" encoding="utf-8"?>
<!-- Generator: Adobe Illustrator 16.0.0, SVG Export Plug-In . SVG Version: 6.00 Build 0)  -->
<!DOCTYPE svg PUBLIC "-//W3C//DTD SVG 1.1//EN" "http://www.w3.org/Graphics/SVG/1.1/DTD/svg11.dtd">
<svg version="1.1" id="Layer_1" xmlns="http://www.w3.org/2000/svg" xmlns:xlink="http://www.w3.org/1999/xlink" x="0px" y="0px"
	 width="512px" height="512px" viewBox="-38 -62.5 512 512" enable-background="new -38 -62.5 512 512" xml:space="preserve">
<path d="M435.004,229.715c-4.106,61.122-29.822,111.891-76.076,152.271c-3.943,3.442-8.287,5.03-13.664,5.012
	c-42.518-0.147-85.034-0.082-127.553-0.082c-42.356,0-84.711-0.056-127.066,0.069c-5.187,0.016-9.347-1.557-13.203-4.885
	c-41.201-35.571-66.289-80.15-74.496-133.859C-14.022,137.18,59.094,30.658,169.207,5.57
	c97.799-22.283,196.766,23.739,242.658,112.973C429.814,153.443,437.623,190.707,435.004,229.715z M397.176,196.389
	c-3.681-36.705-18.569-68.945-42.552-97.111C306.72,43.014,225.517,22.008,156.01,47.724
	C78.542,76.386,28.018,155.027,39.272,239.588c5.603,42.102,23.777,77.773,54.274,107.338c2.532,2.454,5.059,3.334,8.527,3.324
	c38.47-0.109,76.94-0.07,115.411-0.07c39.117,0,78.233,0.043,117.349-0.106c2.294-0.009,5.184-0.947,6.783-2.495
	C384.462,306.107,403.106,255.505,397.176,196.389z M333.431,226.094c0.08-6.281,0.063-12.563,0.009-18.845
	c-0.03-3.401,1.57-5.101,4.958-5.103c12.273-0.01,24.548-0.017,36.82,0.008c3.428,0.007,4.856,1.805,4.795,5.205
	c-0.11,6.279-0.104,12.563-0.004,18.844c0.057,3.441-1.345,5.018-4.884,4.955c-6.297-0.114-12.596-0.032-18.895-0.032
	c-5.813,0.001-11.631-0.103-17.441,0.038C335.14,231.252,333.385,229.821,333.431,226.094z M312.509,143.254
	c-0.766,0.756-1.889,1.151-3.136,1.887c-1.321-0.91-2.768-1.646-3.882-2.724c-4.294-4.151-8.442-8.452-12.725-12.616
	c-2.736-2.66-2.863-5.123-0.09-7.863c8.502-8.396,16.962-16.83,25.375-25.312c2.58-2.603,4.983-2.59,7.514-0.065
	c4.455,4.449,8.911,8.896,13.371,13.341c2.143,2.134,2.701,4.36,0.352,6.706C330.376,125.504,321.467,134.404,312.509,143.254z
	 M247.828,206.798c-2.024,1.993-2.675,3.732-2.188,6.712c2.561,15.657-10.567,30.272-26.906,30.321
	c-16.299,0.05-28.21-13.082-26.965-29.728c1.137-15.199,15.485-26.342,30.911-24.311c1.776,0.234,4.277-0.844,5.619-2.152
	c12.014-11.717,23.834-23.629,35.729-35.467c4.744-4.721,5.846-4.699,10.658,0.075c3.323,3.295,6.56,6.681,9.961,9.892
	c3.008,2.836,2.852,5.277-0.07,8.156C272.276,182.414,260.132,194.688,247.828,206.798z M232.511,77.75
	c0,5.959-0.074,11.92,0.026,17.878c0.06,3.478-1.433,4.966-4.937,4.902c-6.459-0.116-12.92-0.081-19.379-0.013
	c-3.24,0.033-4.774-1.459-4.773-4.646c0.007-12.402-0.152-24.808,0.208-37.2c0.045-1.56,2.712-4.229,4.319-4.352
	c6.583-0.501,13.227-0.242,19.848-0.206c3.464,0.02,4.783,1.916,4.72,5.275C232.429,65.507,232.511,71.629,232.511,77.75z
	 M130.654,142.622c-2.721,2.795-5.086,2.64-7.796-0.114c-8.245-8.371-16.572-16.662-24.956-24.896
	c-2.879-2.827-3.064-5.318-0.075-8.179c4.304-4.114,8.52-8.326,12.648-12.615c2.664-2.77,5.127-2.893,7.847-0.168
	c8.415,8.429,16.888,16.802,25.27,25.265c1.079,1.09,1.754,2.581,2.705,4.022c-1.01,1.403-1.709,2.684-2.692,3.688
	C139.327,133.995,134.921,138.241,130.654,142.622z M100.594,207.361c-0.111,6.279-0.103,12.564-0.003,18.844
	c0.055,3.443-1.348,5.016-4.887,4.953c-6.296-0.114-12.596-0.032-18.895-0.032c-5.813,0.001-11.63-0.103-17.44,0.038
	c-3.65,0.088-5.403-1.345-5.356-5.072c0.078-6.281,0.061-12.563,0.006-18.845c-0.029-3.401,1.574-5.099,4.961-5.101
	c12.273-0.008,24.548-0.017,36.821,0.009C99.229,202.161,100.654,203.962,100.594,207.361z"/>
<g display="none">
	<path display="inline" fill-rule="evenodd" clip-rule="evenodd" d="M158.966,217.425c-2.539-1.969-5.083-3.879-7.562-5.87
		c-22.697-18.246-37.483-41.441-42.809-70.17c-6.68-36.031-0.576-69.417,22.242-98.854c16.782-21.649,38.243-36.376,65.237-42.164
		c31.107-6.67,59.788-0.424,85.44,18.181c24.412,17.705,40.443,41.317,46.923,71.008c2.835,12.991,3.24,26.133,1.911,39.373
		c-1.592,15.856-5.69,30.941-13.143,45.062c-8.903,16.875-21.542,30.47-36.825,41.724c-0.758,0.559-1.511,1.124-2.541,1.891
		c4.853,1.464,9.43,2.819,13.994,4.226c19.863,6.123,38.651,14.481,55.469,26.881c15.698,11.576,29.023,25.289,37.942,42.853
		c6.066,11.945,9.917,24.578,10.337,38.031c0.396,12.639-5.095,22.388-15.524,29.455c-11.038,7.481-23.248,12.309-35.991,15.885
		c-15.902,4.464-32.05,7.734-48.422,9.983c-17.158,2.358-34.421,3.057-51.694,3.585c-12.792,0.392-25.593,0.765-38.388,0.72
		c-16.813-0.059-33.596-0.965-50.338-2.661c-23.24-2.354-46.093-6.574-68.404-13.566c-10.949-3.431-21.314-8.047-30.739-14.703
		c-10.257-7.246-15.069-17.103-14.352-29.563c1.119-19.423,7.909-36.812,19.597-52.255c13.429-17.745,30.688-30.914,50.285-41.156
		c14.269-7.457,29.391-12.657,44.925-16.739c0.654-0.172,1.298-0.387,1.932-0.623C158.632,217.896,158.737,217.679,158.966,217.425z
		 M220.502,365.17c12.896-0.457,28.972-0.63,44.984-1.723c12.252-0.837,24.461-2.589,36.622-4.386
		c14.513-2.146,28.816-5.389,42.82-9.81c8.378-2.644,16.42-6.081,23.743-11.032c3.008-2.032,4.192-4.875,3.897-8.419
		c-1.08-12.948-5.301-24.79-12.746-35.42c-10.313-14.724-23.826-25.933-39.457-34.503c-29.737-16.307-61.943-23.386-95.599-24.538
		c-11.918-0.408-23.795,0.374-35.631,1.925c-15.326,2.008-30.367,5.224-44.966,10.316c-23.83,8.311-44.98,20.845-61.714,40.063
		c-10.245,11.765-16.136,25.515-17.727,41.058c-0.602,5.889,0.601,8.102,5.87,10.823c8.151,4.211,16.519,7.921,25.311,10.613
		c25.875,7.925,52.451,11.803,79.377,13.387C189.28,364.349,203.309,364.566,220.502,365.17z M308.172,114.886
		c-0.323-3.458-0.494-8.515-1.31-13.464c-3.844-23.334-14.558-42.892-32.553-58.375c-26.229-22.564-63.553-27.47-94.169-11.382
		c-31.362,16.482-47.689,43.4-50.774,78.309c-1.79,20.249,2.591,39.518,13.475,56.756c19.83,31.408,48.202,46.991,85.714,43.497
		c19.595-1.825,36.497-10.347,50.529-24.134C298.512,167.006,307.492,143.447,308.172,114.886z"/>
</g>
<g display="none">
	<path display="inline" fill-rule="evenodd" clip-rule="evenodd" d="M299.467,244.658c4.185,3.846,8.048,7.66,12.238,11.072
		c1.102,0.896,3.44,1.169,4.834,0.672c13.379-4.768,24.389-1.012,34.121,8.669c23.113,22.985,46.352,45.848,69.503,68.795
		c2.095,2.078,4.117,4.28,5.854,6.659c8.371,11.468,8.142,25.02-1.026,35.904c-4.756,5.647-10.011,10.939-15.477,15.912
		c-14.189,12.914-30.128,12.536-43.837-1.016c-14.05-13.889-27.874-28.005-41.8-42.02c-9.979-10.042-19.958-20.087-29.946-30.122
		c-8.87-8.912-12.352-19.252-8.04-31.463c1.105-3.128,0.444-5.392-1.839-7.504c-3.604-3.331-7.174-6.699-10.784-10.076
		c-78.381,60.609-180.122,31.883-224.38-28.909C0.042,174.142,7.613,85.499,68.344,28.664
		c57.207-53.537,149.534-54.992,210.276-3.295C337.435,75.423,356.258,170.395,299.467,244.658z M175.035,274.52
		c69.51,0.687,128.811-57.009,129.563-126.056c0.79-72.576-55.854-130.953-127.716-131.622
		C104.43,16.166,46.548,73.08,46.17,145.368C45.799,216.272,103.208,273.811,175.035,274.52z"/>
	<path display="inline" fill-rule="evenodd" clip-rule="evenodd" d="M211.065,218.389c-31.863,23.084-82.821,21.503-114.958-12.405
		c-30.481-32.162-28.603-82.212-10.788-104.926c0.354,34.479,12.031,63.293,36.777,86.406
		C146.812,210.548,176.43,219.781,211.065,218.389z"/>
</g>
<g display="none">
	<path display="inline" fill-rule="evenodd" clip-rule="evenodd" d="M158.513,123.995c2.042,0,3.7,0,5.357,0
		c76.575,0.013,153.149,0.015,229.723,0.07c4.352,0.003,8.741,0.167,13.045,0.752c14.315,1.949,20.03,9.591,16.413,23.604
		c-3.608,13.983-8.327,27.689-12.797,41.439c-9.615,29.578-19.355,59.116-29.129,88.643c-1.078,3.261-2.398,6.521-4.14,9.469
		c-4.045,6.843-10.391,10.277-18.224,10.34c-18.884,0.147-37.771-0.011-56.655,0c-44.583,0.021-89.165,0.076-133.748,0.091
		c-2.819,0.001-5.697,0.092-8.449-0.403c-10.475-1.887-16.149-7.871-17.706-18.946c-2.444-17.394-4.635-34.822-6.956-52.232
		c-2.644-19.824-5.216-39.658-7.997-59.462c-2.869-20.435-6.001-40.833-8.92-61.261c-1.417-9.919-6.769-17.209-15.308-21.824
		C80.701,72.21,58.18,60.513,35.748,48.651c-3.625-1.917-7.162-4.006-10.808-5.884c-7.166-3.691-10.865-9.91-12.803-17.395
		c-0.31-1.199-0.328-2.598-0.045-3.803c2.07-8.819,12.42-15.027,21.093-12.65c2.085,0.571,4.167,1.324,6.085,2.314
		C70.58,27.41,101.717,43.93,133.226,59.705c11.795,5.905,17.7,15.043,19.665,27.419c1.688,10.63,3.138,21.298,4.712,31.946
		C157.827,120.588,158.158,122.091,158.513,123.995z M382.942,157.95c-74.271,0-147.43,0-220.874,0
		c0.146,1.927,0.197,3.571,0.403,5.195c1.954,15.39,4.018,30.766,5.881,46.166c1.633,13.494,2.917,27.031,4.617,40.517
		c0.866,6.863,3.916,9.605,10.727,10.516c1.771,0.236,3.589,0.176,5.386,0.172c36.611-0.085,73.225-0.151,109.837-0.29
		c14.255-0.055,28.512-0.203,42.765-0.456c7.598-0.135,13.033-3.639,15.183-11.179c1.647-5.778,3.049-11.632,4.345-17.5
		c0.39-1.767,0.061-3.692,0.061-5.859c-1.855,0-3.253,0.001-4.649-0.001c-27.622-0.016-55.244-0.03-82.866-0.048
		c-16.314-0.011-32.631,0.069-48.943-0.118c-3.001-0.035-6.144-0.762-8.95-1.86c-5.732-2.243-8.515-7.693-8.112-14.776
		c0.38-6.703,3.508-11.164,9.867-12.547c4.715-1.024,9.653-1.4,14.492-1.403c31.602-0.022,63.203,0.182,94.805,0.21
		c11.56,0.011,23.124-0.11,34.677-0.474c4.156-0.131,9.197-0.312,10.916-4.895C376.315,179.164,379.404,168.739,382.942,157.95z"/>
	<path display="inline" fill-rule="evenodd" clip-rule="evenodd" d="M182.439,378.59c-17.949,0.029-33.299-15.463-33.249-33.559
		c0.049-17.717,15.666-33.554,33.084-33.55c17.789,0.004,33.104,15.632,33.093,33.768
		C215.356,363.309,200.293,378.561,182.439,378.59z"/>
	<path display="inline" fill-rule="evenodd" clip-rule="evenodd" d="M350.457,344.881c0.045,18.988-14.142,33.708-32.491,33.71
		c-18.207,0.002-32.235-14.521-32.335-33.476c-0.098-18.599,14.264-33.539,32.337-33.641
		C336.006,311.372,350.413,326.188,350.457,344.881z"/>
</g>
<g display="none">
	<path display="inline" fill-rule="evenodd" clip-rule="evenodd" d="M148.533,128.655c-11.906,0-23.087,0-35.046,0
		c3.303-6.229,6.129-12.013,9.474-17.49c0.699-1.143,3.311-1.593,5.049-1.609c15.031-0.133,30.063-0.168,45.094-0.062
		c4.571,0.031,8.728-0.913,12.818-2.921c14.559-7.145,29.939-11.648,46.268-10.081c11.327,1.088,22.471,3.989,33.716,5.973
		c14.85,2.619,29.704,5.211,44.586,7.637c3.58,0.583,5.966,1.858,7.639,5.301c17.87,36.823,35.879,73.581,53.925,110.322
		c1.581,3.221,1.736,6.284,0.316,9.471c-1.65,3.705-3.174,7.491-5.146,11.027c-1.852,3.324-1.637,6.021,0.689,9.06
		c5.12,6.684,7.763,14.164,6.854,22.721c-1.426,13.424-10.938,23.499-24.529,25.73c-7.358,1.207-7.358,1.209-8.751,8.274
		c-2.993,15.197-11.931,22.724-27.638,23.271c-5.983,0.209-6.549,0.609-8.729,6.167c-3.591,9.148-9.188,16.293-19.498,18.513
		c-7.296,1.572-14.094-0.327-20.659-3.339c-1.994-0.914-3.937-1.939-5.87-2.898c-2.971,3.378-5.572,6.84-8.681,9.778
		c-9.684,9.148-22.557,9.956-35.316,2.481c-0.574-0.335-1.136-0.69-1.688-1.06c-6.017-4.035-5.852-3.868-11.031,1.053
		c-4.088,3.882-9,5.867-14.926,4.313c-9.019-2.364-16.932-11.452-15.896-19.843c0.087-0.708,0.011-1.437,0.011-3.009
		c-6.948,8.127-14.685,10.542-23.964,6.364c-5.263-2.372-9.814-5.624-12.705-10.718c-2.82-4.971-3.297-10.315-1.78-16.446
		c-9.871,5.892-18.735,5.32-27.331-1.062c-8.56-6.354-11.76-14.535-8.705-25.596c-1.828,0.95-2.933,1.55-4.059,2.109
		c-10.148,5.047-21.919,2.271-29.261-6.896c-6.558-8.185-6.194-18.82,1.003-27.477c2.963-3.563,6.033-7.039,9.063-10.546
		c3.006-3.479,3.003-4.284-0.05-7.831c-3.886-4.52-7.711-9.088-11.67-13.541c-1.8-2.025-1.984-3.984-0.699-6.301
		c2.17-3.91,4.235-7.876,6.54-12.187c6.892,7.855,13.553,15.445,20.295,23.132c11.225-5.776,21.364-4.588,30.307,4.177
		c8.089,7.93,7.444,16.98,2.917,27.063c9.689-3.783,18.209-2.652,25.83,3.771c7.646,6.442,10.669,14.331,7.651,24.784
		c9.402-4.885,17.833-4.042,25.758,2.123c7.823,6.087,11.186,13.663,8.427,23.61c2.803-0.438,5.356-1.117,7.929-1.196
		c12.622-0.373,22.401,11.146,19.97,23.301c-0.165,0.831-0.156,2.184,0.349,2.583c6.914,5.491,16.66,7.952,23.774,0.747
		c3.995-4.051,3.809-6.557-0.744-9.879c-10.912-7.954-21.82-15.909-32.727-23.866c-0.715-0.523-1.433-1.046-2.113-1.611
		c-3.746-3.116-4.286-6.227-1.705-9.717c2.639-3.565,5.848-4.28,9.853-1.649c7.864,5.166,15.577,10.557,23.345,15.862
		c10.784,7.368,21.507,14.829,32.395,22.045c2.319,1.537,5.151,2.77,7.89,3.151c5.804,0.819,10.7-2.732,12.989-8.68
		c2.163-5.616,0.664-10.171-5.001-14.235c-10.432-7.484-20.94-14.861-31.423-22.276c-8.854-6.261-17.735-12.49-26.563-18.792
		c-1.52-1.083-2.976-2.321-4.217-3.704c-1.858-2.073-2.106-4.535-0.957-7.057c1.207-2.645,3.386-4.411,6.263-4.016
		c2.639,0.362,5.489,1.193,7.644,2.672c22.734,15.581,45.356,31.324,67.988,47.057c4.741,3.299,9.672,4.844,15.287,2.307
		c7.601-3.436,9.572-13.785,3.676-19.628c-1.247-1.232-2.715-2.27-4.162-3.279c-24.423-17.034-48.864-34.036-73.272-51.087
		c-1.891-1.322-3.794-2.755-5.281-4.478c-2.54-2.938-2.708-6.902-0.804-9.422c1.937-2.563,5.748-3.522,9.4-2.044
		c1.925,0.78,3.709,1.972,5.424,3.162c25.91,17.993,51.797,36.023,77.697,54.029c8.128,5.651,16.485,4.889,23.044-2.052
		c6.109-6.461,5.992-14.384-0.858-20.636c-7.346-6.705-15.073-13.007-22.655-19.457c-29.573-25.164-59.171-50.302-88.713-75.5
		c-2.855-2.436-5.32-5.315-8.109-7.83c-10.261-9.247-26.761-8.805-36.054,1.32c-2.403,2.62-4.104,6.271-5.026,9.733
		c-3.393,12.737-8.786,24.16-20.006,32.022c-8.175,5.729-17.333,8.235-27.4,7.229c-1.881-0.188-3.778-0.212-5.667-0.304
		c-9.421-0.454-15.311-11.578-11.274-18.743c5.435-9.641,7.082-20.505,7.268-31.423c0.15-8.856,2.737-16.764,7.438-24.165
		C145.489,134.155,146.767,131.729,148.533,128.655z"/>
	<path display="inline" fill-rule="evenodd" clip-rule="evenodd" d="M34.766,230.554c-2.811-0.881-5.004-1.334-6.99-2.234
		c-8.468-3.844-16.91-7.75-25.295-11.771c-6.524-3.128-8.274-7.938-5.133-14.376c21.178-43.39,42.398-86.76,63.655-130.112
		c3.219-6.564,7.851-8.225,14.522-5.217c8.884,4.006,17.695,8.167,26.497,12.346c6.305,2.994,7.978,7.442,4.941,13.8
		c-5.767,12.079-11.728,24.068-17.609,36.095c-14.943,30.56-29.869,61.127-44.857,91.664c-1.151,2.344-2.437,4.768-4.23,6.617
		C38.796,228.887,36.479,229.608,34.766,230.554z"/>
	<path display="inline" fill-rule="evenodd" clip-rule="evenodd" d="M399.569,230.405c-4.739-0.336-7.016-3.412-8.772-6.972
		c-5.496-11.117-10.9-22.276-16.351-33.417c-15.626-31.938-31.26-63.872-46.881-95.813c-3.898-7.967-2.62-11.697,5.44-15.525
		c8.203-3.895,16.441-7.715,24.691-11.509c7.063-3.248,12.086-1.586,15.4,5.195c21.16,43.28,42.297,86.571,63.404,129.876
		c3.236,6.639,1.827,10.767-4.827,14c-8.663,4.209-17.392,8.287-26.144,12.309C403.656,229.411,401.563,229.8,399.569,230.405z"/>
</g>
<g display="none">
	<path display="inline" fill-rule="evenodd" clip-rule="evenodd" d="M112.211,63.862c-0.492-10.059,3.506-15.923,11.16-19.604
		c30.503-14.674,61.009-29.342,91.466-44.109c6.168-2.991,12.034-2.965,18.198,0.006c30.701,14.8,61.463,29.475,92.188,44.228
		c8.06,3.87,11.718,10.5,10.971,19.404c-1.147,13.68-2.207,27.367-3.385,41.044c-2.863,33.279-15.059,62.93-35.373,89.244
		c-17.297,22.406-39.571,38.473-65.312,49.94c-5.493,2.446-10.794,2.363-16.276-0.108c-52.678-23.752-85.056-64.182-97.625-120.252
		c-3.006-13.408-3.247-27.444-4.621-41.206C112.938,75.796,112.595,69.11,112.211,63.862z M224.012,35.611
		c-1.295,0.438-2.186,0.638-2.986,1.023c-23.214,11.171-46.407,22.384-69.639,33.515c-2.497,1.195-3.48,2.905-3.223,5.573
		c1.146,11.899,1.478,23.937,3.52,35.679c7.467,42.948,30.752,74.765,69.028,95.609c0.979,0.533,2.055,0.885,3.301,1.414
		C224.012,150.763,224.012,93.48,224.012,35.611z"/>
	<path display="inline" fill-rule="evenodd" clip-rule="evenodd" d="M328.666,379.604c-29.976,0-59.644,0-89.798,0
		c0-2.008-0.007-3.851,0.001-5.695c0.061-14.446,0.148-28.892,0.182-43.338c0.06-26.633,9.322-49.398,28.243-68.272
		c17.795-17.75,35.411-35.678,53.089-53.545c5.221-5.274,11.366-8.017,18.772-6.175c13.97,3.476,18.565,21.055,8.291,31.745
		c-8.137,8.468-16.524,16.694-24.783,25.045c-0.986,0.998-1.944,2.044-2.77,3.175c-1.854,2.54-1.71,5.021,0.528,7.283
		c2.516,2.545,5.56,2.925,8.23,0.964c1.033-0.759,1.95-1.69,2.857-2.605c9.59-9.677,19.145-19.39,28.759-29.042
		c4.479-4.496,6.719-9.837,6.323-16.173c-1.052-16.869-2.2-33.731-3.245-50.599c-0.473-7.615-0.954-15.235-1.139-22.861
		c-0.262-10.794,7.549-19.464,17.665-19.941c10.659-0.502,19.723,7.613,20.535,18.472c2.092,27.967,4.221,55.932,6.163,83.91
		c0.381,5.487,0.252,11.046-0.103,16.542c-0.711,11.017-6.319,19.664-13.866,27.284c-13.06,13.184-26.099,26.387-39.138,39.591
		c-6.85,6.937-13.579,13.996-20.569,20.788c-2.944,2.859-4.09,6.007-4.014,10.023c0.18,9.51,0.122,19.023,0.118,28.536
		C328.999,376.323,328.785,377.93,328.666,379.604z"/>
	<path display="inline" fill-rule="evenodd" clip-rule="evenodd" d="M209.265,379.674c-30.145,0-59.843,0-90.042,0
		c0-1.335,0.001-2.574,0-3.813c-0.006-9.984-0.124-19.97,0.04-29.95c0.062-3.813-1.186-6.724-3.834-9.402
		c-19.488-19.713-38.735-39.665-58.399-59.2c-12.693-12.608-17.453-27.445-15.651-45.062c1.683-16.453,2.574-32.988,3.835-49.484
		c0.922-12.051,1.749-24.111,2.862-36.145c0.924-9.99,10.151-17.579,20.281-17.041c10.081,0.535,18.05,8.812,17.666,19.129
		c-0.533,14.307-1.574,28.594-2.408,42.891c-0.623,10.662-1.312,21.321-1.875,31.986c-0.322,6.089,1.965,11.268,6.169,15.563
		c9.941,10.156,19.953,20.243,29.927,30.366c2.127,2.159,4.75,3.59,7.566,2.281c1.651-0.766,3.623-2.88,3.709-4.48
		c0.114-2.133-0.917-4.873-2.409-6.455c-8.536-9.06-17.455-17.758-26.043-26.769c-7.101-7.451-7.28-18.655-0.736-25.889
		c7.247-8.01,18.551-8.421,26.574-0.608c10.771,10.486,21.408,21.116,31.911,31.872c10.743,11.002,21.815,21.758,31.722,33.483
		c11.997,14.199,17.955,31.233,18.565,49.821c0.585,17.836,0.53,35.694,0.743,53.543
		C209.449,377.34,209.335,378.371,209.265,379.674z"/>
</g>
<g display="none">
	<path display="inline" fill-rule="evenodd" clip-rule="evenodd" d="M202.735,121.884c5.736,4.184,10.771,8.091,16.039,11.651
		c11.873,8.019,24.892,12.12,39.372,11.206c3.735-0.236,6.561-1.684,9.254-4.909c-5.528-0.949-10.715-1.71-15.843-2.755
		c-5.211-1.061-10.398-2.273-15.536-3.646c-12.688-3.389-21.655-11.263-27.576-22.911c-6.943-13.664-11.255-28.295-16.092-42.739
		c-0.393-1.173-0.786-2.347-1.306-3.9c-1.153,0.692-2.093,1.233-3.011,1.809c-6.016,3.783-11.793,8.033-18.099,11.249
		c-8.499,4.334-16.589,0.15-18.759-9.067c-1.006-4.276,0.447-8.024,3.441-10.866c3.087-2.931,6.624-5.418,10.109-7.893
		c4.506-3.2,9.156-6.195,14.056-9.488c-12.927-16.658-25.72-33.142-38.787-49.98c42.761,0,85.07,0,127.923,0
		c-13.322,16.977-26.403,33.645-39.664,50.544c0.797,0.362,1.395,0.687,2.026,0.913c10.53,3.755,17.765,11.512,24.415,20.008
		c2.839,3.626,5.75,7.198,8.686,10.747c5.252,6.346,11.839,9.432,20.264,9.375c33.309-0.224,66.618-0.174,99.929-0.226
		c1.023-0.002,2.047-0.001,3.472-0.001c0,1.555,0.005,2.777-0.001,4c-0.088,18.434-0.198,36.869-0.247,55.304
		c-0.009,3.558,0.301,7.117,0.325,10.677c0.041,6.282-2.386,8.723-8.757,8.738c-10.895,0.026-21.79-0.037-32.685-0.065
		c-21.578-0.056-43.157-0.091-64.736-0.183c-4.999-0.021-9.724,0.95-13.253,4.628c-5.535,5.769-12.329,9.634-19.142,13.53
		c-1.267,0.724-2.492,1.523-4.127,2.528c4.264,5.523,8.432,10.947,12.627,16.351c18.228,23.48,36.603,46.85,54.642,70.477
		c9.43,12.348,16.479,26.056,18.737,41.608c3.36,23.146-2.529,44.103-17.144,62.258c-15.103,18.766-35.192,28.549-59.172,28.923
		c-33.716,0.524-67.475,1.008-101.166-0.063c-32.283-1.029-55.6-17.766-69.132-46.798c-12.048-25.849-9.7-51.684,6.188-75.193
		c12.988-19.219,27.611-37.346,41.74-55.777c10.888-14.205,22.137-28.132,33.219-42.189c0.182-0.231,0.274-0.535,0.672-1.332
		c-3.134-0.162-6.008-0.135-8.83-0.505c-3.286-0.43-6.719-0.729-9.743-1.942c-5.308-2.129-7.551-7.278-5.617-12.653
		c2.459-6.835,5.765-12.171,15.055-12.252c9.602-0.083,19.23,0.018,28.808,0.64c7.092,0.46,11.663,7.278,9.817,14.308
		c-0.85,3.239-2.438,6.529-4.498,9.166c-18.297,23.431-36.801,46.699-55.188,70.059c-8.868,11.269-17.85,22.459-26.36,33.993
		c-8.81,11.938-14.296,25.418-14.7,40.36c-0.686,25.365,11.116,43.547,33.397,55.135c8.95,4.655,18.499,6.929,28.654,6.96
		c29.217,0.094,58.433,0.451,87.65,0.489c10.126,0.012,20.365,0.125,30.039-3.676c22.184-8.717,34.877-25.215,38.849-48.445
		c3.386-19.804-3.487-37.012-15.15-52.409c-17.883-23.609-36.278-46.833-54.418-70.252c-5.64-7.28-11.318-14.54-16.676-22.027
		c-3.56-4.976-8.183-7.149-14.128-7.338c-3.185-0.102-7.266,0.349-9.238-1.387c-1.558-1.371-0.602-5.699-0.609-8.713
		c-0.035-14.038-0.015-28.075-0.015-42.113C202.735,124.692,202.735,123.563,202.735,121.884z M174.31,6.216
		c2.378,3.519,4.789,6.563,6.634,9.919c4.647,8.452,11.813,13.163,21.014,15.435c6.989,1.727,12.831,0.979,16.671-5.867
		c0.102-0.178,0.276-0.313,0.406-0.477c4.907-6.195,9.812-12.39,15.053-19.009C213.888,6.216,194.297,6.216,174.31,6.216z"/>
	<path display="inline" fill-rule="evenodd" clip-rule="evenodd" d="M231.511,256.147c-7.923-1.051-15.469-2.021-23.006-3.062
		c-4.343-0.601-7.985,0.916-11.392,3.419c-2.37,1.743-2.932,3.938-1.981,6.617c1.484,4.185,3.915,7.718,7.926,9.738
		c4.559,2.297,9.266,4.313,13.958,6.334c6.691,2.882,12.826,6.437,17.68,12.095c10.508,12.248,9.431,41.559-14.201,50.013
		c-1.375,0.491-2.771,0.946-4.095,1.559c-3.527,1.627-5.062,4.419-4.918,8.308c0.131,3.519,0.028,7.048,0.028,10.753
		c-5.52,0-10.397,0-15.582,0c-0.347-4.262-0.803-8.51-0.987-12.771c-0.077-1.782-0.664-2.489-2.389-2.962
		c-7.746-2.126-15.443-4.426-23.156-6.675c-0.783-0.23-1.545-0.538-2.584-0.902c1.581-6.58,3.129-13.032,4.703-19.579
		c8.01,1.727,15.698,3.57,23.466,4.969c3.445,0.62,7.083,0.684,10.58,0.38c4.889-0.423,7.92-3.491,9.202-8.177
		c1.338-4.874,0.074-9.205-4.36-11.715c-5.607-3.176-11.711-5.462-17.442-8.433c-5.261-2.729-10.888-5.177-15.351-8.938
		c-14.953-12.598-12.466-37.369,4.586-47.833c3.606-2.212,7.716-3.66,11.704-5.17c1.679-0.636,2.263-1.375,2.217-3.124
		c-0.112-4.286-0.036-8.576-0.036-13.11c5.207,0,10.276,0,15.862,0c0.17,3.52,0.491,7.128,0.458,10.73
		c-0.018,2.104,0.859,2.885,2.737,3.38c4.636,1.222,9.307,2.392,13.812,4.01c5.75,2.066,7.018,4.736,5.482,10.688
		C233.604,249.889,232.488,253.012,231.511,256.147z"/>
	<path display="inline" fill-rule="evenodd" clip-rule="evenodd" d="M158.833,117.638c7.95,0,15.902-0.098,23.851,0.028
		c7.619,0.121,12.615,5.175,12.751,12.606c0.152,8.219-4.213,13.679-12.066,13.805c-16.522,0.268-33.055,0.205-49.578-0.056
		c-7.25-0.115-11.718-5.564-11.718-13.225c0.001-7.547,4.885-12.93,12.283-13.094c8.155-0.181,16.317-0.042,24.478-0.042
		C158.833,117.654,158.833,117.646,158.833,117.638z"/>
	<path display="inline" fill-rule="evenodd" clip-rule="evenodd" d="M161.827,110.805c-7.003,0.004-14.011,0.13-21.011-0.03
		c-7.722-0.177-12.459-5.07-12.587-12.654c-0.134-7.958,4.589-13.563,12.326-13.693c14.22-0.238,28.451-0.243,42.671,0.027
		c7.831,0.149,12.312,5.562,12.21,13.719c-0.095,7.604-4.796,12.426-12.597,12.595C175.838,110.92,168.831,110.801,161.827,110.805z
		"/>
</g>
<g display="none">
	<path display="inline" fill-rule="evenodd" clip-rule="evenodd" d="M338.161,219.961c0,48.34,0.041,96.68-0.063,145.019
		c-0.011,5.05-0.376,10.209-1.452,15.126c-3.187,14.563-12.937,23.975-27.627,25.845c-9.808,1.248-19.794,1.508-29.699,1.497
		c-45.23-0.05-90.458-0.353-135.688-0.559c-10.094-0.046-19.143-3.39-26.666-9.869c-21.929-18.887-43.619-38.053-65.346-57.172
		c-6.625-5.831-9.615-13.297-9.606-22.133c0.076-81.395,0.067-162.789,0.171-244.182C42.2,61.79,44.656,50.74,54.024,42.56
		c8.207-7.167,18.264-9.256,28.762-9.276c50.825-0.095,101.649-0.053,152.474-0.055c20.753-0.001,41.507-0.101,62.257,0.096
		c4.92,0.047,9.952,0.609,14.722,1.787c15.958,3.94,25.646,16.4,25.782,33.496c0.24,30.567,0.146,61.137,0.172,91.707
		c0.018,19.883,0.003,39.765,0.003,59.648C338.185,219.961,338.173,219.961,338.161,219.961z M300.645,371.153
		c0-100.686,0-201.152,0-301.709c-73.612,0-146.981,0-220.375,0c0,73.068,0,145.848,0,218.98c1.55,0,2.888-0.001,4.226-0.001
		c17.276,0,34.552-0.05,51.828,0.028c6.083,0.026,12.181,0.156,18.244,0.613c9.629,0.725,15.275,6.157,16.5,15.597
		c0.398,3.067,0.64,6.178,0.651,9.271c0.065,17.773,0.039,35.546,0.044,53.319c0,1.302,0,2.605,0,3.901
		C215.067,371.153,257.775,371.153,300.645,371.153z M133.579,324.835c-14.716,0-29.127,0-44.497,0
		c15.124,13.423,29.582,26.253,44.497,39.49C133.579,350.789,133.579,337.967,133.579,324.835z"/>
	<path display="inline" fill-rule="evenodd" clip-rule="evenodd" d="M357.653,352.57c0-112.595,0-224.762,0-337.346
		c-86.397,0-172.446,0-259.271,0c0.518-3.106,0.75-5.75,1.413-8.28c4.687-17.901,17.169-27.201,36.764-27.242
		c47.473-0.099,94.947-0.136,142.419-0.15c25.353-0.007,50.705,0.061,76.057,0.146c9.521,0.032,18.503,1.981,26.106,8.164
		c9.548,7.764,12.728,18.271,12.742,30.082c0.046,37.78,0.107,75.56,0.103,113.34c-0.007,61.392-0.062,122.784-0.101,184.177
		c-0.007,10.509-2.054,20.312-10.327,27.691C376.307,349.622,367.562,352.102,357.653,352.57z"/>
	<path display="inline" fill-rule="evenodd" clip-rule="evenodd" d="M117.281,234.151c0-5.225,0-10.268,0-15.63
		c48.588,0,97.161,0,145.992,0c0,5.076,0,10.22,0,15.63C214.683,234.151,166.104,234.151,117.281,234.151z"/>
	<path display="inline" fill-rule="evenodd" clip-rule="evenodd" d="M263.219,111.712c0,5.088,0,10.002,0,15.197
		c-48.678,0-97.315,0-146.224,0c0-4.967,0-9.974,0-15.197C165.747,111.712,214.382,111.712,263.219,111.712z"/>
	<path display="inline" fill-rule="evenodd" clip-rule="evenodd" d="M116.782,180.586c0-5.213,0-10.143,0-15.29
		c48.834,0,97.499,0,146.456,0c0,4.967,0,9.992,0,15.29C214.572,180.586,165.817,180.586,116.782,180.586z"/>
</g>
</svg>
