<svg width="512" height="512" viewBox="0 0 512 512" fill="none" xmlns="http://www.w3.org/2000/svg">
<g clip-path="url(#clip0_1045_339)">
<path d="M396.47 476.06C302.49 476.06 208.51 476.06 114.52 476.06C114.14 475.86 113.79 475.57 113.38 475.48C92.18 470.43 80.99 456.36 80.99 434.66C81 323.24 80.99 211.82 81.02 100.4C81.03 76.77 97.71 60.15 121.33 60.1C135.65 60.07 149.98 60.04 164.3 60.14C166.91 60.16 168.75 59.49 170.62 57.51C180.09 47.45 191.69 40.96 205.13 37.77C207.6 37.19 210.06 36.59 212.52 35.99C241.17 35.99 269.83 35.99 298.48 35.99C298.83 36.21 299.16 36.58 299.54 36.63C316.07 38.89 329.88 46.33 341.41 58.3C342.49 59.42 344.63 59.99 346.28 60.01C360.89 60.14 375.5 59.93 390.1 60.18C394.62 60.26 399.31 60.84 403.58 62.24C420.16 67.68 429.98 82.27 429.99 100.83C430.01 185.75 430 270.67 430 355.6C430 382.81 430.09 410.02 429.96 437.23C429.87 455.13 418.44 469.89 401.38 474.66C399.74 475.12 398.11 475.59 396.47 476.06ZM357.78 85.97C358.48 92.16 359.42 98.09 359.77 104.04C360.3 113.15 354.96 118.6 345.76 118.6C285.6 118.63 225.44 118.63 165.28 118.6C155.93 118.6 150.66 113.08 151.25 103.64C151.61 97.82 152.54 92.03 153.26 85.91C143.26 85.91 133.11 85.91 122.96 85.91C111.44 85.91 106.8 90.53 106.8 101.99C106.8 212.7 106.8 323.41 106.8 434.11C106.8 445.59 111.44 450.23 122.92 450.23C211.15 450.23 299.39 450.23 387.62 450.23C399.72 450.23 404.21 445.76 404.21 433.72C404.21 323.3 404.21 212.88 404.21 102.46C404.21 101.03 404.27 99.59 404.17 98.16C403.71 91.7 398.81 86.23 392.38 86.05C380.8 85.74 369.21 85.97 357.78 85.97ZM332.06 92.6C331.48 91 331.09 89.64 330.5 88.38C322.66 71.69 309.51 62.36 291.11 61.95C267.36 61.42 243.58 61.74 219.82 61.91C215.87 61.94 211.77 62.59 208.01 63.79C193.59 68.39 183.98 77.99 178.87 92.6C230.13 92.6 280.89 92.6 332.06 92.6Z" fill="white"/>
<path d="M270.64 215.32C280.87 205.16 290.71 195.38 300.82 185.33C299.73 185.1 298.72 184.9 297.71 184.69C291.7 183.42 287.36 178.2 287.31 172.17C287.26 166.26 291.19 160.98 297.11 159.71C300.14 159.06 303.35 159.12 306.49 159.09C314.65 159.01 322.81 159.01 330.98 159.08C340.73 159.16 345.73 164.24 345.75 174.03C345.78 183.48 345.76 192.93 345.75 202.38C345.74 211.34 341.38 216.97 334 217.56C326.34 218.18 321.09 213.29 319.73 204.28C319.25 203.8 318.77 203.31 318.29 202.83C317.57 204.25 317.15 205.95 316.09 207.03C304.63 218.65 293.09 230.19 281.53 241.73C274.38 248.87 267.51 248.81 260.28 241.61C247.91 229.28 235.54 216.95 222.82 204.28C221.72 205.33 220.6 206.35 219.53 207.42C208.3 218.66 197.16 230 185.81 241.13C178.29 248.5 166.68 245.43 164 235.55C162.73 230.86 163.95 226.68 167.3 223.31C182.72 207.75 198.17 192.21 213.74 176.8C219.29 171.31 226.72 171.6 232.49 177.32C244.19 188.91 255.78 200.61 267.42 212.25C268.52 213.34 269.66 214.38 270.64 215.32Z" fill="white"/>
<path d="M299.34 303.02C316.37 303.03 333.4 302.9 350.42 303.07C360.83 303.18 366.93 313.14 362.19 321.92C359.35 327.19 354.61 328.89 348.91 328.89C321.72 328.85 294.54 328.87 267.35 328.87C261.2 328.87 255.04 328.9 248.89 328.86C239.95 328.8 233.95 323.5 234.01 315.77C234.07 308.14 239.86 303.05 248.68 303.02C265.57 302.99 282.46 303.02 299.34 303.02Z" fill="white"/>
<path d="M299.17 377.11C315.91 377.11 332.66 377.09 349.4 377.12C358.09 377.13 363.89 382.39 363.8 390.1C363.7 397.58 357.87 402.88 349.53 402.89C315.76 402.92 281.98 402.92 248.21 402.89C239.93 402.88 234.07 397.48 234.02 390.02C233.97 382.46 239.72 377.15 248.08 377.13C265.11 377.09 282.14 377.11 299.17 377.11Z" fill="white"/>
<path d="M172.38 312.29C179.19 305.46 184.92 299.67 190.69 293.93C196.97 287.68 204.56 287.19 210.08 292.64C215.56 298.05 215.2 305.87 209.07 312.06C200.52 320.7 191.93 329.31 183.31 337.88C176.57 344.57 169.4 344.55 162.67 337.89C158.6 333.87 154.52 329.86 150.55 325.73C145.04 319.99 144.95 312.07 150.23 306.93C155.39 301.9 163.12 302.05 168.7 307.43C170.02 308.71 170.95 310.38 172.38 312.29Z" fill="white"/>
<path d="M172.49 386.33C179.17 379.61 184.87 373.82 190.63 368.07C196.86 361.85 204.55 361.3 210.03 366.62C215.64 372.06 215.2 379.96 208.85 386.36C200.29 394.99 191.7 403.59 183.07 412.16C176.56 418.62 169.31 418.54 162.75 412.02C158.69 407.99 154.62 403.97 150.63 399.87C145.08 394.15 144.93 386.29 150.16 381.09C155.43 375.85 163.09 376.07 168.91 381.73C170.14 382.9 171.03 384.42 172.49 386.33Z" fill="white"/>
</g>
<defs>
<clipPath id="clip0_1045_339">
<rect width="349.03" height="440.06" fill="white" transform="translate(81 36)"/>
</clipPath>
</defs>
</svg>
