<svg xmlns="http://www.w3.org/2000/svg" width="64" height="50" viewBox="0 0 64 50">
  <path id="Shape_1" data-name="Shape 1" d="M1049.942,689.292c-1.173-.133-1.367-1.028-1.368-2q0-9.8,0-19.606v-1.342l-.321-.17c-1.149,1.172-2.308,2.335-3.443,3.521-.682.713-1.449.9-2.173.2-.707-.687-.419-1.4.225-2.034,2.355-2.311,4.7-4.634,7.094-7,2.526,2.471,4.985,4.852,7.409,7.266a1.166,1.166,0,0,1-.08,1.851,1.309,1.309,0,0,1-1.905-.112c-1.219-1.22-2.434-2.446-3.875-3.9-.035.734-.073,1.159-.073,1.584q-.007,9.5,0,18.99c0,.247,0,.494,0,.74-.026,1.242-.505,2.012-1.326,2.012A1.406,1.406,0,0,1,1049.942,689.292Zm9.661-10.082c-.208,0-.49.075-.611-.03-.491-.418-1.255-.851-1.318-1.355-.1-.775.534-1.269,1.463-1.263,3.622.024,7.246.045,10.868,0a9.028,9.028,0,0,0,7.5-3.43,8.145,8.145,0,0,0,1.037-8.81,8.374,8.374,0,0,0-7.269-5.035c-1.81-.175-2.079-.371-2.012-2.181a13.861,13.861,0,0,0-6.627-12.948,14.16,14.16,0,0,0-19.989,5.264c-1.535,2.973-1.535,2.973-4.377,1.234a6.316,6.316,0,0,0-9.488,5.062,2.108,2.108,0,0,1-1.706,2.158,9.549,9.549,0,0,0,.957,18.32,14.593,14.593,0,0,0,3.2.36c3.163.045,6.33.04,9.493,0,.958-.011,1.6.368,1.64,1.266a1.308,1.308,0,0,1-1.459,1.366c-1.117-.007-2.236,0-3.355.013a82.7,82.7,0,0,1-8.856-.233c-5.33-.527-8.654-3.776-10.336-8.726-.1-.286-.239-.558-.36-.836v-4.937c.887-1.761,1.521-3.723,2.736-5.225,1.148-1.417,2.925-2.329,4.388-3.508a2.882,2.882,0,0,0,1.07-1.287c1.075-4.417,4.217-7.265,8.708-7.361,1.67-.036,3.357.668,5.161,1.061,4.568-7.232,11.18-10.435,20.016-8.1a16.46,16.46,0,0,1,11.984,16.163,49.771,49.771,0,0,1,5.287,2.534,10.559,10.559,0,0,1,4.374,6.23,2.254,2.254,0,0,0,.276.476v4.69a37.968,37.968,0,0,1-2.89,5.2,10.113,10.113,0,0,1-8.015,3.833c-1.512.047-3.025.061-4.538.061C1064.24,679.244,1061.921,679.211,1059.6,679.21Z" transform="translate(-1018 -639.301)" fill="#dcdcdc"/>
</svg>
