<svg width="22" height="20" viewBox="0 0 22 20" fill="none" xmlns="http://www.w3.org/2000/svg">
<path d="M20 6.6031C19.7604 6.70371 19.5399 6.7965 19.3051 6.89502C18.3213 4.35279 16.6818 2.53304 14.338 1.50875C12.5605 0.732063 10.7255 0.621033 8.8719 1.14491C5.24417 2.16972 3.05315 5.43234 2.55763 8.17681C3.09915 8.26334 3.63972 8.34987 4.16064 8.43276C3.36704 9.28607 2.57152 10.141 1.7717 11C1.21244 9.98457 0.619639 8.90972 0 7.78586C0.610533 7.87969 1.17362 7.9657 1.75301 8.05484C2.43686 5.1545 3.93253 2.91148 6.30948 1.39772C7.86649 0.406271 9.56199 -0.0560942 11.3634 0.00541547C15.6946 0.153977 18.8393 3.25239 20 6.6031Z" fill="black"/>
<path d="M2 13.4042C2.24007 13.3016 2.4605 13.2074 2.64739 13.1277C4.75679 17.6554 8.03972 19.8377 12.7085 18.9325C16.4069 18.2153 18.7966 15.0053 19.4622 11.8282C18.9131 11.7391 18.3658 11.65 17.8622 11.5683C18.6361 10.7282 19.4277 9.86929 20.2284 9C20.7881 10.0141 21.3804 11.086 22 12.2089C21.389 12.1172 20.8221 12.0323 20.2577 11.9475C19.1383 17.122 14.8351 20.057 10.8401 19.9992C6.71189 19.9403 3.34748 17.1564 2 13.4042Z" fill="black"/>
</svg>
