<svg width="20" height="22" viewBox="0 0 20 22" fill="none" xmlns="http://www.w3.org/2000/svg">
<path d="M8.44529 14.8428C8.44529 13.7762 8.42017 12.7091 8.45294 11.6436C8.48078 10.7404 8.15205 9.98185 7.55901 9.30913C5.22945 6.66768 2.89444 4.03038 0.563789 1.38893C0.395052 1.19747 0.217031 1.00497 0.0919801 0.788009C-0.118805 0.422254 0.0450176 0.11685 0.474233 0.0304839C0.606383 0.00394973 0.745632 0.0023889 0.881605 0.0023889C6.96324 0.00134834 13.0449 0.000828064 19.126 0.0023889C19.4367 0.0023889 19.7829 -0.0137397 19.9434 0.299468C20.1105 0.625162 19.8719 0.876457 19.6726 1.11474C17.4053 3.82696 15.1342 6.53657 12.8696 9.25138C12.3317 9.896 12.0614 10.6353 12.0619 11.4652C12.0652 14.335 12.0647 17.2049 12.0603 20.0747C12.0603 20.2631 12.0483 20.4592 11.9915 20.6371C11.8927 20.9472 11.6218 21.0705 11.3024 20.9634C11.1336 20.9067 10.9763 20.813 10.8218 20.723C10.2637 20.3973 9.70236 20.0763 9.15573 19.7334C8.64242 19.4114 8.43437 18.939 8.44038 18.3552C8.45403 17.1841 8.44529 16.0134 8.44529 14.8428ZM0.846656 0.664183C0.90727 0.745867 0.93512 0.79009 0.969523 0.829631C1.69034 1.64491 2.4128 2.45966 3.13362 3.27494C4.79259 5.15106 6.4543 7.02511 8.10727 8.90591C8.80898 9.70402 9.16611 10.615 9.15355 11.6764C9.12734 13.9042 9.153 16.1326 9.13881 18.3604C9.13608 18.7506 9.27369 19.0321 9.60843 19.2345C10.0464 19.4988 10.4871 19.7579 10.9283 20.017C11.0637 20.0966 11.203 20.1705 11.3837 20.2709C11.3837 20.1356 11.3837 20.0513 11.3837 19.9675C11.3843 17.1326 11.3925 14.2981 11.381 11.4631C11.3772 10.4569 11.7125 9.57707 12.3617 8.79874C14.5706 6.15312 16.7833 3.51011 18.9938 0.866051C19.0408 0.809861 19.0785 0.745867 19.1353 0.664703C13.0285 0.664183 6.96106 0.664183 0.846656 0.664183Z" fill="black"/>
</svg>
