<svg width="21" height="21" viewBox="0 0 21 21" fill="none" xmlns="http://www.w3.org/2000/svg">
<path d="M1.03979 13.75C2.83599 14.2339 4.60632 14.7111 6.41581 15.1989C5.97541 15.4954 5.56891 15.7686 5.16242 16.0423C4.85204 16.2515 4.54061 16.4589 4.23199 16.671C4.05897 16.7899 4.05093 16.9091 4.20507 17.0614C5.34696 18.1897 6.68109 18.9932 8.22249 19.3892C11.4091 20.2076 14.2668 19.5081 16.7404 17.3112C18.3024 15.9238 19.2468 14.1535 19.6285 12.0769C19.6732 11.8335 19.7071 11.588 19.7494 11.3211C20.1545 11.3549 20.5624 11.3887 21 11.4254C20.9444 11.7855 20.9109 12.132 20.8364 12.4694C20.0144 16.1978 17.8655 18.8039 14.4003 20.2603C12.8355 20.9182 11.1927 21.1221 9.50699 20.9321C7.00685 20.6499 4.8842 19.5778 3.11771 17.7623C2.93106 17.5706 2.90764 17.5659 2.68919 17.7125C2.00937 18.1691 1.33024 18.6274 0.650771 19.0846C0.599041 19.1195 0.545215 19.1512 0.449795 19.2113C0.648324 17.3748 0.842309 15.579 1.03979 13.75Z" fill="black"/>
<path d="M0 9.8504C0.0580208 9.43479 0.0964683 9.03448 0.170917 8.64165C0.569373 6.53833 1.4991 4.71257 2.97828 3.18712C4.52667 1.59051 6.38788 0.582089 8.55842 0.176798C10.384 -0.164088 12.1732 -0.0100132 13.9201 0.621586C15.3608 1.14252 16.6247 1.95808 17.7215 3.0423C17.904 3.22271 17.9476 3.22875 18.1539 3.08215C18.812 2.61388 19.4691 2.14418 20.1269 1.67556C20.1926 1.62859 20.2597 1.58375 20.3562 1.51685C20.2021 3.35899 20.0507 5.17016 19.8973 7.00483C18.1056 6.56288 16.3304 6.12521 14.5293 5.68078C14.5775 5.64057 14.6083 5.61104 14.6429 5.58649C15.2906 5.12391 15.9389 4.66204 16.587 4.19946C16.8239 4.03008 16.8285 3.92725 16.61 3.72798C15.2553 2.49183 13.6873 1.68303 11.888 1.40584C9.01559 0.963183 6.46827 1.72608 4.28655 3.68279C2.91572 4.91219 2.01465 6.45187 1.54734 8.24632C1.40648 8.78682 1.33692 9.34655 1.23067 9.91837C0.852836 9.89773 0.448787 9.87531 0 9.8504Z" fill="black"/>
</svg>
