<svg width="21" height="21" viewBox="0 0 21 21" fill="none" xmlns="http://www.w3.org/2000/svg">
<g clip-path="url(#clip0_1485_2503)">
<path d="M10.5227 0.00182128C13.5254 0.00182128 16.5285 0.000811568 19.5312 0.00232614C20.3074 0.00283099 20.8014 0.363803 20.9639 1.04788C21.0694 1.49165 20.9452 1.87787 20.647 2.2136C19.7532 3.21978 18.859 4.22495 17.9648 5.23062C16.8303 6.50639 15.6933 7.77964 14.5665 9.06248C14.4842 9.15639 14.4403 9.31542 14.4398 9.44466C14.4327 12.8439 14.4347 16.2431 14.4327 19.6423C14.4322 20.4581 13.8488 21.0402 13.0485 20.9983C12.8411 20.9872 12.615 20.9115 12.4383 20.8004C10.7589 19.7478 9.09504 18.6709 7.41203 17.6243C6.80847 17.2492 6.54252 16.7626 6.55109 16.0441C6.57784 13.8399 6.56371 11.6352 6.55362 9.43103C6.55311 9.28967 6.48398 9.11903 6.39011 9.0125C4.39069 6.75024 2.38117 4.49707 0.378215 2.23834C-0.1986 1.58758 -0.106754 0.663184 0.605308 0.232036C0.848549 0.0846178 1.17506 0.0139378 1.46422 0.0114136C3.70134 -0.00575157 5.93845 0.00232614 8.17607 0.00232614C8.95828 0.00232614 9.74048 0.00232614 10.5227 0.00182128ZM13.1232 19.6852C13.1232 19.5574 13.1232 19.4752 13.1232 19.3929C13.1232 15.9427 13.1252 12.4925 13.1186 9.04229C13.1181 8.79895 13.1842 8.61922 13.3467 8.43747C15.1932 6.37665 17.0327 4.30875 18.8726 2.24238C19.1361 1.94653 19.3954 1.64664 19.6755 1.32657C13.5415 1.32657 7.45492 1.32657 1.33352 1.32657C1.38146 1.38816 1.40821 1.42653 1.43949 1.46136C3.51966 3.79885 5.59882 6.13734 7.68252 8.4713C7.81373 8.61821 7.87631 8.76209 7.8758 8.96303C7.86924 11.353 7.87328 13.7425 7.86773 16.1325C7.86722 16.2956 7.91113 16.392 8.05445 16.4743C8.33806 16.6368 8.61007 16.8201 8.88661 16.9958C10.283 17.8823 11.6793 18.7684 13.1232 19.6852Z" fill="black"/>
<path d="M10.5216 0.00139404C13.5243 0.00139404 16.5275 0.000384322 19.5302 0.00189889C20.3063 0.00240375 20.8004 0.363376 20.9629 1.04746C21.0683 1.49123 20.9442 1.87744 20.6459 2.21317C19.7522 3.21935 18.858 4.22452 17.9637 5.23019C16.8293 6.50597 15.6923 7.77922 14.5654 9.06206C14.4831 9.15596 14.4392 9.31499 14.4387 9.44423C14.4317 12.8434 14.4337 16.2426 14.4317 19.6418C14.4312 20.4577 13.8478 21.0398 13.0474 20.9979C12.84 20.9868 12.6139 20.911 12.4373 20.8C10.7578 19.7473 9.09399 18.6705 7.41098 17.6239C6.80742 17.2488 6.54147 16.7621 6.55005 16.0437C6.5768 13.8395 6.56267 11.6348 6.55257 9.4306C6.55207 9.28924 6.48293 9.1186 6.38907 9.01208C4.38964 6.74981 2.38013 4.49664 0.37717 2.23791C-0.199645 1.58715 -0.107799 0.662756 0.604262 0.231609C0.847504 0.0841905 1.17401 0.0135106 1.46318 0.0109863C3.70029 -0.00617882 5.9374 0.00189889 8.17502 0.00189889C8.95723 0.00189889 9.73944 0.00189889 10.5216 0.00139404ZM13.1221 19.6847C13.1221 19.557 13.1221 19.4747 13.1221 19.3924C13.1221 15.9422 13.1241 12.4921 13.1176 9.04186C13.1171 8.79852 13.1832 8.61879 13.3457 8.43704C15.1922 6.37622 17.0316 4.30833 18.8716 2.24195C19.135 1.9461 19.3944 1.64622 19.6745 1.32614C13.5405 1.32614 7.45388 1.32614 1.33247 1.32614C1.38041 1.38773 1.40716 1.4261 1.43845 1.46093C3.51862 3.79842 5.59777 6.13692 7.68147 8.47087C7.81268 8.61778 7.87526 8.76167 7.87476 8.9626C7.8682 11.3526 7.87223 13.7421 7.86668 16.1321C7.86618 16.2951 7.91008 16.3916 8.0534 16.4739C8.33701 16.6364 8.60902 16.8197 8.88557 16.9954C10.2819 17.8819 11.6783 18.7679 13.1221 19.6847Z" fill="black"/>
</g>
<defs>
<clipPath id="clip0_1485_2503">
<rect width="21" height="21" fill="white"/>
</clipPath>
</defs>
</svg>
