<svg width="23" height="11" viewBox="0 0 23 11" fill="none" xmlns="http://www.w3.org/2000/svg">
<g clip-path="url(#clip0_1485_2512)">
<path d="M11.4992 9.80959C11.543 9.76174 11.5714 9.72506 11.6057 9.69374C15.0735 6.52674 18.5421 3.36021 22.0093 0.192737C22.1365 0.0765721 22.2749 -0.00575074 22.4615 0.0011751C22.6892 0.00967499 22.8563 0.107108 22.9487 0.296625C23.0426 0.489447 23.0047 0.669676 22.8576 0.831174C22.8357 0.855257 22.8101 0.876822 22.7857 0.899016C19.1654 4.20469 15.5451 7.51021 11.9246 10.8157C11.7257 10.9974 11.5002 11.0492 11.2771 10.9539C11.2037 10.9226 11.1363 10.8727 11.0775 10.8206C10.8672 10.6342 10.6618 10.4433 10.4546 10.2541C7.0374 7.13401 3.62052 4.0136 0.202083 0.894767C0.0355487 0.742713 -0.0411674 0.571457 0.0221018 0.362265C0.128642 0.00951861 0.606696 -0.116249 0.906492 0.12647C0.93442 0.149137 0.961314 0.172748 0.98769 0.196831C4.46767 3.37438 7.94782 6.55192 11.4278 9.72979C11.448 9.74836 11.4644 9.7704 11.4992 9.80959Z" fill="black"/>
</g>
<defs>
<clipPath id="clip0_1485_2512">
<rect width="11" height="23" fill="white" transform="translate(0 11) rotate(-90)"/>
</clipPath>
</defs>
</svg>
